<svg xmlns="http://www.w3.org/2000/svg" viewBox="0 0 32 32" width="32" height="32">
  <defs>
    <linearGradient id="lotus-gradient" x1="0%" y1="0%" x2="100%" y2="100%">
      <stop offset="0%" style="stop-color:#FFD700;stop-opacity:1" />
      <stop offset="50%" style="stop-color:#FF6700;stop-opacity:1" />
      <stop offset="100%" style="stop-color:#800000;stop-opacity:1" />
    </linearGradient>
  </defs>
  
  <!-- Background circle -->
  <circle cx="16" cy="16" r="15" fill="#FFF8E1" stroke="#4A0404" stroke-width="0.5"/>
  
  <!-- Lotus petals - outer layer -->
  <path d="M16 8 Q18 12 16 16 Q14 12 16 8" fill="url(#lotus-gradient)" opacity="0.8"/>
  <path d="M24 16 Q20 18 16 16 Q20 14 24 16" fill="url(#lotus-gradient)" opacity="0.8"/>
  <path d="M16 24 Q14 20 16 16 Q18 20 16 24" fill="url(#lotus-gradient)" opacity="0.8"/>
  <path d="M8 16 Q12 14 16 16 Q12 18 8 16" fill="url(#lotus-gradient)" opacity="0.8"/>
  
  <!-- Lotus petals - diagonal -->
  <path d="M22.5 10.5 Q19 13 16 16 Q19 11 22.5 10.5" fill="url(#lotus-gradient)" opacity="0.7"/>
  <path d="M22.5 21.5 Q19 19 16 16 Q19 21 22.5 21.5" fill="url(#lotus-gradient)" opacity="0.7"/>
  <path d="M9.5 21.5 Q13 19 16 16 Q13 21 9.5 21.5" fill="url(#lotus-gradient)" opacity="0.7"/>
  <path d="M9.5 10.5 Q13 13 16 16 Q13 11 9.5 10.5" fill="url(#lotus-gradient)" opacity="0.7"/>
  
  <!-- Center of lotus -->
  <circle cx="16" cy="16" r="3" fill="#FFD700"/>
  <circle cx="16" cy="16" r="1.5" fill="#4A0404"/>
</svg>